%TF.GenerationSoftware,KiCad,Pcbnew,7.0.0*%
%TF.CreationDate,2023-03-21T20:03:06+00:00*%
%TF.ProjectId,SOIC-8_Breakout,534f4943-2d38-45f4-9272-65616b6f7574,1.0*%
%TF.SameCoordinates,Original*%
%TF.FileFunction,Soldermask,Bot*%
%TF.FilePolarity,Negative*%
%FSLAX46Y46*%
G04 Gerber Fmt 4.6, Leading zero omitted, Abs format (unit mm)*
G04 Created by KiCad (PCBNEW 7.0.0) date 2023-03-21 20:03:06*
%MOMM*%
%LPD*%
G01*
G04 APERTURE LIST*
%ADD10R,1.520000X1.520000*%
%ADD11C,1.520000*%
%ADD12R,1.700000X1.700000*%
%ADD13O,1.700000X1.700000*%
G04 APERTURE END LIST*
D10*
%TO.C,U2*%
X72389999Y-44449999D03*
D11*
X72390000Y-46990000D03*
X72390000Y-49530000D03*
X72390000Y-52070000D03*
X72390000Y-54610000D03*
X72390000Y-57150000D03*
X72390000Y-59690000D03*
X72390000Y-62230000D03*
X72390000Y-64770000D03*
X72390000Y-67310000D03*
X118110000Y-44450000D03*
X74930000Y-44450000D03*
X115570000Y-44450000D03*
X118110000Y-46990000D03*
X74930000Y-46990000D03*
X115570000Y-46990000D03*
X118110000Y-49530000D03*
X74930000Y-49530000D03*
X115570000Y-49530000D03*
X118110000Y-52070000D03*
X74930000Y-52070000D03*
X115570000Y-52070000D03*
X118110000Y-54610000D03*
X74930000Y-54610000D03*
X115570000Y-54610000D03*
X118110000Y-57150000D03*
X74930000Y-57150000D03*
X115570000Y-57150000D03*
X118110000Y-59690000D03*
X74930000Y-59690000D03*
X115570000Y-59690000D03*
X118110000Y-62230000D03*
X74930000Y-62230000D03*
X115570000Y-62230000D03*
X118110000Y-64770000D03*
X74930000Y-64770000D03*
X115570000Y-64770000D03*
X118110000Y-67310000D03*
X74930000Y-67310000D03*
X115570000Y-67310000D03*
%TD*%
D12*
%TO.C,J1*%
X83819999Y-59689999D03*
D13*
X86359999Y-59689999D03*
%TD*%
M02*
