%TF.GenerationSoftware,KiCad,Pcbnew,7.0.0*%
%TF.CreationDate,2023-03-21T20:03:06+00:00*%
%TF.ProjectId,SOIC-8_Breakout,534f4943-2d38-45f4-9272-65616b6f7574,1.0*%
%TF.SameCoordinates,Original*%
%TF.FileFunction,Soldermask,Top*%
%TF.FilePolarity,Negative*%
%FSLAX46Y46*%
G04 Gerber Fmt 4.6, Leading zero omitted, Abs format (unit mm)*
G04 Created by KiCad (PCBNEW 7.0.0) date 2023-03-21 20:03:06*
%MOMM*%
%LPD*%
G01*
G04 APERTURE LIST*
G04 Aperture macros list*
%AMRoundRect*
0 Rectangle with rounded corners*
0 $1 Rounding radius*
0 $2 $3 $4 $5 $6 $7 $8 $9 X,Y pos of 4 corners*
0 Add a 4 corners polygon primitive as box body*
4,1,4,$2,$3,$4,$5,$6,$7,$8,$9,$2,$3,0*
0 Add four circle primitives for the rounded corners*
1,1,$1+$1,$2,$3*
1,1,$1+$1,$4,$5*
1,1,$1+$1,$6,$7*
1,1,$1+$1,$8,$9*
0 Add four rect primitives between the rounded corners*
20,1,$1+$1,$2,$3,$4,$5,0*
20,1,$1+$1,$4,$5,$6,$7,0*
20,1,$1+$1,$6,$7,$8,$9,0*
20,1,$1+$1,$8,$9,$2,$3,0*%
G04 Aperture macros list end*
%ADD10R,1.520000X1.520000*%
%ADD11C,1.520000*%
%ADD12RoundRect,0.250000X0.350000X0.450000X-0.350000X0.450000X-0.350000X-0.450000X0.350000X-0.450000X0*%
%ADD13RoundRect,0.250000X-0.350000X-0.450000X0.350000X-0.450000X0.350000X0.450000X-0.350000X0.450000X0*%
%ADD14RoundRect,0.150000X0.650000X0.150000X-0.650000X0.150000X-0.650000X-0.150000X0.650000X-0.150000X0*%
%ADD15R,1.700000X1.700000*%
%ADD16O,1.700000X1.700000*%
G04 APERTURE END LIST*
D10*
%TO.C,U2*%
X72389999Y-44449999D03*
D11*
X72390000Y-46990000D03*
X72390000Y-49530000D03*
X72390000Y-52070000D03*
X72390000Y-54610000D03*
X72390000Y-57150000D03*
X72390000Y-59690000D03*
X72390000Y-62230000D03*
X72390000Y-64770000D03*
X72390000Y-67310000D03*
X118110000Y-44450000D03*
X74930000Y-44450000D03*
X115570000Y-44450000D03*
X118110000Y-46990000D03*
X74930000Y-46990000D03*
X115570000Y-46990000D03*
X118110000Y-49530000D03*
X74930000Y-49530000D03*
X115570000Y-49530000D03*
X118110000Y-52070000D03*
X74930000Y-52070000D03*
X115570000Y-52070000D03*
X118110000Y-54610000D03*
X74930000Y-54610000D03*
X115570000Y-54610000D03*
X118110000Y-57150000D03*
X74930000Y-57150000D03*
X115570000Y-57150000D03*
X118110000Y-59690000D03*
X74930000Y-59690000D03*
X115570000Y-59690000D03*
X118110000Y-62230000D03*
X74930000Y-62230000D03*
X115570000Y-62230000D03*
X118110000Y-64770000D03*
X74930000Y-64770000D03*
X115570000Y-64770000D03*
X118110000Y-67310000D03*
X74930000Y-67310000D03*
X115570000Y-67310000D03*
%TD*%
D12*
%TO.C,R6*%
X81010000Y-67310000D03*
X79010000Y-67310000D03*
%TD*%
%TO.C,R5*%
X79010000Y-64770000D03*
X81010000Y-64770000D03*
%TD*%
D13*
%TO.C,R4*%
X109490000Y-62230000D03*
X111490000Y-62230000D03*
%TD*%
D12*
%TO.C,R3*%
X81010000Y-62230000D03*
X79010000Y-62230000D03*
%TD*%
D13*
%TO.C,R2*%
X109490000Y-67310000D03*
X111490000Y-67310000D03*
%TD*%
D12*
%TO.C,R1*%
X111490000Y-64770000D03*
X109490000Y-64770000D03*
%TD*%
D14*
%TO.C,U1*%
X98850000Y-66040000D03*
X98850000Y-64770000D03*
X98850000Y-63500000D03*
X98850000Y-62230000D03*
X91650000Y-62230000D03*
X91650000Y-63500000D03*
X91650000Y-64770000D03*
X91650000Y-66040000D03*
%TD*%
D15*
%TO.C,J1*%
X83819999Y-59689999D03*
D16*
X86359999Y-59689999D03*
%TD*%
M02*
