M48
; DRILL file {KiCad 7.0.0} date Tue 21 Mar 2023 08:02:57 PM GMT
; FORMAT={-:-/ absolute / inch / decimal}
; #@! TF.CreationDate,2023-03-21T20:02:57+00:00
; #@! TF.GenerationSoftware,Kicad,Pcbnew,7.0.0
; #@! TF.FileFunction,MixedPlating,1,2
FMAT,2
INCH
; #@! TA.AperFunction,Plated,PTH,ViaDrill
T1C0.0130
; #@! TA.AperFunction,Plated,PTH,ComponentDrill
T2C0.0350
; #@! TA.AperFunction,Plated,PTH,ComponentDrill
T3C0.0394
%
G90
G05
T1
X3.05Y-2.55
X3.325Y-2.55
X3.525Y-2.625
X3.825Y-2.5
X4.075Y-2.5
T2
X2.85Y-1.75
X2.85Y-1.85
X2.85Y-1.95
X2.85Y-2.05
X2.85Y-2.15
X2.85Y-2.25
X2.85Y-2.35
X2.85Y-2.45
X2.85Y-2.55
X2.85Y-2.65
X2.95Y-1.75
X2.95Y-1.85
X2.95Y-1.95
X2.95Y-2.05
X2.95Y-2.15
X2.95Y-2.25
X2.95Y-2.35
X2.95Y-2.45
X2.95Y-2.55
X2.95Y-2.65
X4.55Y-1.75
X4.55Y-1.85
X4.55Y-1.95
X4.55Y-2.05
X4.55Y-2.15
X4.55Y-2.25
X4.55Y-2.35
X4.55Y-2.45
X4.55Y-2.55
X4.55Y-2.65
X4.65Y-1.75
X4.65Y-1.85
X4.65Y-1.95
X4.65Y-2.05
X4.65Y-2.15
X4.65Y-2.25
X4.65Y-2.35
X4.65Y-2.45
X4.65Y-2.55
X4.65Y-2.65
T3
X3.3Y-2.35
X3.4Y-2.35
T0
M30
